# xmcd
#
# Track frame offsets: 
#        150
#        9960
#        23859
#        40078
#        61961
#        81575
#        101201
#        125305
#        136743
#        155601
#        175589
#        188501
#        211077
#        241890
#        265501
#        285566
#        300825
#        318558
#
# Disc length: 4365 seconds
#
# Revision: 1
# Processed by: cddbd v1.4PL0 Copyright (c) Steve Scherf et al.
# Submitted via: ExactAudioCopy v0.90b4
#
DISCID=df110b12
DTITLE=Dolly Parton - For God And Country
DYEAR=2003
DGENRE=Country
TTITLE0=The Lord Is My Shepherd
TTITLE1=The Star Spangled Banner
TTITLE2=God Bless The USA
TTITLE3=Light Of A Clear Blue Morning
TTITLE4=When Johnny Comes Marching Home
TTITLE5=Welcome Home
TTITLE6=Gee, Ma, I Wanna Go Home
TTITLE7=Whispering Hope
TTITLE8=There Will Be Peace In The Valley For Me
TTITLE9=Red, White And Bluegrass
TTITLE10=My Country 'Tis Of Thee
TTITLE11=I'm Gonna Miss You
TTITLE12=Go To Hell
TTITLE13=Ballad Of The Green Beret
TTITLE14=Brave Little Soldier
TTITLE15=Tie A Yellow Ribbon
TTITLE16=Color Me America
TTITLE17=The Glory Forever
EXTD=
EXTT0=
EXTT1=
EXTT2=
EXTT3=
EXTT4=
EXTT5=
EXTT6=
EXTT7=
EXTT8=
EXTT9=
EXTT10=
EXTT11=
EXTT12=
EXTT13=
EXTT14=
EXTT15=
EXTT16=
EXTT17=
PLAYORDER=
